<?xml version="1.0" encoding="UTF-8" standalone="no"?>
<svg
   width="100"
   height="100"
   viewBox="0 0 100 100"
   version="1.1"
   id="svg8"
   sodipodi:docname="happy.svg"
   inkscape:version="1.1.1 (1:1.1+202109281943+c3084ef5ed)"
   xmlns:inkscape="http://www.inkscape.org/namespaces/inkscape"
   xmlns:sodipodi="http://sodipodi.sourceforge.net/DTD/sodipodi-0.dtd"
   xmlns="http://www.w3.org/2000/svg"
   xmlns:svg="http://www.w3.org/2000/svg">
  <defs
     id="defs12" />
  <sodipodi:namedview
     id="namedview10"
     pagecolor="#ffffff"
     bordercolor="#666666"
     borderopacity="1.0"
     inkscape:pageshadow="2"
     inkscape:pageopacity="0.0"
     inkscape:pagecheckerboard="0"
     showgrid="false"
     inkscape:zoom="1.8932292"
     inkscape:cx="3.6973865"
     inkscape:cy="28.522695"
     inkscape:window-width="1920"
     inkscape:window-height="1026"
     inkscape:window-x="0"
     inkscape:window-y="0"
     inkscape:window-maximized="1"
     inkscape:current-layer="svg8"
     width="100px" />
  <g
     id="g830"
     transform="matrix(5.0001853,0,0,5.0001853,-9.6486174,-9.6965494)">
    <path
       style="fill:#24a89b;fill-opacity:1;stroke:none;stroke-width:0.378091;stroke-linecap:square;stroke-opacity:1;paint-order:stroke fill markers"
       d="M 10.861073,21.920364 C 8.979699,21.69124 7.2520717,20.969896 5.7840439,19.80053 5.2943366,19.41045 4.5125448,18.626468 4.1613765,18.173315 3.4069882,17.199841 2.8692001,16.189855 2.4989435,15.051204 1.3656767,11.566063 2.2607058,7.7208017 4.8174669,5.0902652 5.3346035,4.5582069 5.6895209,4.2489258 6.2133425,3.8738761 7.5836332,2.892765 9.1798858,2.2790055 10.877805,2.0803893 c 0.554152,-0.064823 1.684018,-0.06555 2.232103,-0.00144 1.627447,0.1903727 3.066577,0.7174978 4.419666,1.6188372 0.613235,0.4084974 0.914005,0.6598202 1.536697,1.2840595 0.841229,0.8433194 1.391681,1.6104188 1.897279,2.644011 0.399456,0.8166068 0.651641,1.5586399 0.82412,2.424905 0.149171,0.749202 0.179092,1.074859 0.179092,1.949235 0,0.874376 -0.02992,1.200033 -0.179092,1.949235 -0.302068,1.517115 -0.961063,2.946277 -1.947747,4.22408 -0.313703,0.406259 -1.209369,1.303452 -1.642979,1.64578 -1.483068,1.170858 -3.200917,1.880224 -5.090827,2.1022 -0.505707,0.0594 -1.753932,0.05888 -2.245044,-9.31e-4 z m 1.766162,-1.931961 c 3.81647,-0.313686 6.885787,-3.266219 7.328342,-7.04951 C 20.377703,9.3302459 18.322838,5.8937711 14.93643,4.5450693 13.994187,4.1698031 13.068361,3.9970037 12,3.9970037 c -0.669242,0 -0.989081,0.030202 -1.584594,0.1496294 -2.9591639,0.5934487 -5.3794095,2.8642344 -6.1535966,5.773587 -0.1758613,0.6608769 -0.239124,1.1104789 -0.2584106,1.8364989 -0.019675,0.740631 0.015389,1.193957 0.1404437,1.815744 0.7980092,3.967806 4.4710727,6.745722 8.4833925,6.41594 z"
       id="path942" />
    <path
       style="fill:none;fill-opacity:0.998313;stroke:none;stroke-width:0.378091;stroke-linecap:square;stroke-opacity:1;paint-order:stroke fill markers"
       d="M 5.0305567,11.759628 C 5.104397,10.944773 5.5082533,10.13374 6.0740104,9.6641427 6.3227162,9.4577086 6.8466551,9.1933148 7.1801926,9.1059331 c 0.1855867,-0.048621 0.3513366,-0.060194 0.8418157,-0.05878 0.5704968,0.00164 0.6303014,0.00777 0.9078404,0.092958 0.4446665,0.1364887 0.7764086,0.3263706 1.0945933,0.626521 0.552631,0.5213079 0.871931,1.1956159 0.952032,2.0105339 L 10.998378,12 H 10.009631 9.0208856 L 8.9980734,11.828032 C 8.9487961,11.456562 8.7747674,11.208342 8.4676754,11.071517 8.250757,10.974868 7.8200791,10.965666 7.5716326,11.05237 7.2580373,11.16181 7.0460732,11.450767 7.0078712,11.82091 L 6.9893874,12 H 5.9990811 5.0087748 Z"
       id="path1020" />
    <path
       style="fill:#24a89b;fill-opacity:1;stroke:none;stroke-width:0.378091;stroke-linecap:square;stroke-opacity:1;paint-order:stroke fill markers"
       d="m 13.023526,11.777166 c 0.07377,-0.75051 0.352666,-1.388828 0.823377,-1.8844879 0.362403,-0.3816123 0.708903,-0.5941823 1.229604,-0.7543361 0.27027,-0.083127 0.333787,-0.089553 0.901485,-0.091189 0.490479,-0.00141 0.656229,0.01016 0.841815,0.05878 0.333538,0.087382 0.857477,0.3517755 1.106183,0.5582096 0.562095,0.4665584 0.971272,1.2830304 1.042401,2.0800114 L 18.991225,12 h -0.990306 -0.990306 l -0.01848,-0.17909 c -0.0382,-0.370143 -0.250166,-0.6591 -0.563762,-0.76854 -0.248446,-0.0867 -0.679124,-0.0775 -0.896042,0.01915 -0.307092,0.136825 -0.481121,0.385045 -0.530398,0.756515 L 14.979114,12 h -0.988746 -0.988746 z"
       id="path1059" />
    <path
       style="fill:#24a89b;fill-opacity:1;stroke:none;stroke-width:0.378091;stroke-linecap:square;stroke-opacity:1;paint-order:stroke fill markers"
       d="M 11.075653,17.891094 C 9.7009705,17.633234 8.5806183,16.855346 7.7735321,15.598349 7.5870316,15.307884 7.1973382,14.512293 7.1024775,14.228336 l -0.06617,-0.198075 2.4710011,-0.0085 c 1.3590504,-0.0047 3.5927124,-0.0047 4.9636924,0 l 2.492692,0.0085 -0.0657,0.198075 c -0.08631,0.260207 -0.41968,0.952187 -0.608834,1.263747 -0.759078,1.250305 -1.867009,2.070859 -3.200033,2.370003 -0.340801,0.07648 -1.659142,0.09547 -2.013474,0.02901 z"
       id="path4333" />
    <path
       style="fill:#24a89b;fill-opacity:1;stroke:none;stroke-width:0.378091;stroke-linecap:square;paint-order:stroke fill markers"
       d="m 5.2494563,11.694635 c 0.00231,-0.507462 0.4458138,-1.415276 0.8834379,-1.8083128 0.2063192,-0.1852984 0.8723136,-0.5339886 1.1298292,-0.5915371 0.081706,-0.018259 0.4194923,-0.033562 0.7506369,-0.034006 0.5784944,-7.754e-4 0.6140596,0.00304 0.9078404,0.097428 0.1681677,0.054029 0.4006144,0.1543045 0.5165483,0.2228335 0.4476043,0.2645804 0.898498,0.7894614 1.107068,1.2887284 0.09523,0.227954 0.216625,0.699005 0.216987,0.841969 l 2.32e-4,0.09138 -0.7802965,-0.0089 -0.7802957,-0.0089 -0.046041,-0.181568 C 9.0689241,11.262808 8.7879858,10.9595 8.4607608,10.853898 8.2720479,10.792997 7.7659721,10.78401 7.5758334,10.838184 7.1912805,10.947751 6.9135359,11.267991 6.8187169,11.711142 l -0.019425,0.09078 H 6.0241303 5.2489683 Z"
       id="path1001" />
  </g>
</svg>
